<?xml version="1.0" encoding="utf-8"?>
<!-- Generator: Adobe Illustrator 18.0.0, SVG Export Plug-In . SVG Version: 6.00 Build 0)  -->
<!DOCTYPE svg PUBLIC "-//W3C//DTD SVG 1.1//EN" "http://www.w3.org/Graphics/SVG/1.1/DTD/svg11.dtd">
<svg version="1.1" id="Capa_1" xmlns="http://www.w3.org/2000/svg" xmlns:xlink="http://www.w3.org/1999/xlink" x="0px" y="0px"
	 viewBox="0 0 512 512" enable-background="new 0 0 512 512" xml:space="preserve">
<g>
	<path fill="#4EC9FF" d="M242.2,34.4h-16.7c-5.5,0-10,4.5-10,10v4.8c-39.6-25.8-91-25.6-130.5,0.6v-5.4c0-5.5-4.5-10-10-10H59.4
		l0-3.1c53.8-41.8,129.1-41.7,182.8,0.1L242.2,34.4z"/>
	<path fill="#D64F34" d="M389.1,307.2l-46.9,85.3l-86.3,10l-86.3-10l-46.9-85.3c-2.6-4.8-2.4-10.6,0.4-15.2l111.3-178.2h42.8
		l111.3,178.2C391.6,296.7,391.7,302.5,389.1,307.2L389.1,307.2z"/>
	<path display="none" fill="#FFAA17" d="M389.1,307.2l-46.9,85.3l-86.3,10V113.9h21.4l111.3,178.2
		C391.6,296.7,391.7,302.5,389.1,307.2L389.1,307.2z"/>
	<path fill="#0095FF" d="M452.5,114.4l0.1,4.6c-53.8,41.8-129.1,41.7-182.8-0.1l-0.1-4.4h15.8c5.5,0,10-4.5,10-10v-4
		c39.8,26.5,91.7,26.5,131.5,0.1v3.9c0,5.5,4.5,10,10,10H452.5z"/>
	<path fill="#0D56A2" d="M169.7,392.5l-8.7,29.2V497c0,8.3,6.7,15,15,15h160c8.3,0,15-6.7,15-15v-75.2l-8.7-29.2L169.7,392.5z"/>
	<path display="none" fill="#00204D" d="M351,421.8V497c0,8.3-6.7,15-15,15h-80V392.5h86.3L351,421.8z"/>
	<path fill="#EDF5FF" d="M300,287c0,24.3-19.7,44-44,44s-44-19.7-44-44c0-19,12.1-35.2,29-41.4V113.9h30v131.8
		C287.9,251.8,300,268,300,287z"/>
	<path display="none" fill="#CEE8FF" d="M300,287c0,24.3-19.7,44-44,44V113.9h15v131.8C287.9,251.8,300,268,300,287z"/>
	<path fill="#9BFCFF" d="M75,29.4H15c-8.3,0-15,6.7-15,15v60c0,8.3,6.7,15,15,15h60c8.3,0,15-6.7,15-15v-60
		C90,36.1,83.3,29.4,75,29.4z"/>
	<path fill="#4EC9FF" d="M497,29.4h-60c-8.3,0-15,6.7-15,15v60c0,8.3,6.7,15,15,15h60c8.3,0,15-6.7,15-15v-60
		C512,36.1,505.3,29.4,497,29.4z"/>
	<path fill="#9BFCFF" d="M285.5,29.4h-60c-8.3,0-15,6.7-15,15v60c0,8.3,6.7,15,15,15h60c8.3,0,15-6.7,15-15v-60
		C300.5,36.1,293.8,29.4,285.5,29.4z"/>
	<path display="none" fill="#4EC9FF" d="M300.5,44.4v60c0,8.3-6.7,15-15,15H256v-90h29.5C293.8,29.4,300.5,36.1,300.5,44.4z"/>
</g>
</svg>
