<?xml version="1.0" encoding="utf-8"?>
<!-- Generator: Adobe Illustrator 18.0.0, SVG Export Plug-In . SVG Version: 6.00 Build 0)  -->
<!DOCTYPE svg PUBLIC "-//W3C//DTD SVG 1.1//EN" "http://www.w3.org/Graphics/SVG/1.1/DTD/svg11.dtd">
<svg version="1.1" id="Capa_1" xmlns="http://www.w3.org/2000/svg" xmlns:xlink="http://www.w3.org/1999/xlink" x="0px" y="0px"
	 viewBox="0 0 512 512" enable-background="new 0 0 512 512" xml:space="preserve">
<g>
	<path fill="#D64F34" d="M474.7,308.4c7.7-21.8,11.6-44.7,11.6-68.1c0-113.3-92.2-205.5-205.5-205.5c-26.6,0-52.4,5-76.8,14.8
		c-0.1-0.2-0.1-0.5-0.2-0.7c-4.6-27.5-14.2-42.7-26.9-42.7c-12.7,0-22.3,15.2-26.9,42.7c-0.5,2.7-2.5,4.8-5.2,5.2
		c-27.5,4.6-42.7,14.2-42.7,26.9c0,9.7,8.8,17.5,25.1,22.7c-33.6,37.7-52,85.7-52,136.6c0,36.1,9.4,71.4,27.3,102.4L6.2,439
		c-8.3,8.3-8.3,21.7,0,30l30.7,30.7c4.1,4.1,9.5,6.2,15,6.2c5.4,0,10.8-2.1,15-6.2l37.7-37.7c2.9-2.9,2.9-7.7,0-10.6
		s-7.7-2.9-10.6,0L56.2,489c-2.4,2.4-6.3,2.4-8.7,0l-30.7-30.7c-2.4-2.4-2.4-6.3,0-8.7l202.4-202.4l39.4,39.4L118.9,426.3
		c-2.9,2.9-2.9,7.7,0,10.6c1.5,1.5,3.4,2.2,5.3,2.2c1.9,0,3.8-0.7,5.3-2.2l30.4-30.4c35.3,25.7,76.9,39.3,120.8,39.3
		c51.2,0,99.5-18.6,137.3-52.6c5,10.4,11.5,15.9,19.1,15.9c12.7,0,22.3-15.2,26.9-42.7c0.5-2.7,2.5-4.8,5.2-5.2
		c27.5-4.6,42.7-14.2,42.7-26.9C512,322.4,498.8,313.3,474.7,308.4z M117.1,80.9c0.4-2,8.1-8.4,30.2-12.1c9-1.5,16-8.5,17.5-17.5
		c3.7-22.1,10.2-29.9,12.1-30.2c1.9,0.3,8.4,8,12.1,30.2c1.5,9,8.7,16,17.5,17.5c22.1,3.7,29.9,10.2,30.2,12.1
		c-0.3,1.9-8,8.4-30.2,12.1c-9,1.5-16,8.5-17.5,17.5c-3.7,22.1-10.2,29.9-12.1,30.2c-1.9-0.3-8.4-8-12.1-30.2
		c-1.5-9-8.5-16-17.5-17.5C130.3,90.2,117.8,84.4,117.1,80.9z M280.7,430.8c-39.9,0-77.8-12.1-110.1-35l174.7-174.7
		c7.1-7.1,11-16.5,11-26.6c0-10-3.9-19.5-11-26.6l-7.4-7.4c-7.1-7.1-16.5-11-26.6-11s-19.5,3.9-26.6,11l-11.1,11.1
		c-2.9,2.9-2.9,7.7,0,10.6s7.7,2.9,10.6,0l11.1-11.1c4.3-4.3,9.9-6.6,16-6.6s11.7,2.4,16,6.6l7.5,7.5c4.3,4.3,6.6,9.9,6.6,16
		c0,6-2.3,11.7-6.6,16l-65.5,65.5l-39.4-39.4l29.7-29.7c2.9-2.9,2.9-7.7,0-10.6s-7.7-2.9-10.6,0L113.5,331.7
		c-15.3-27.9-23.3-59.3-23.3-91.4c0-49.9,19.1-96.9,53.7-132.6c0.3,0,0.6,0.1,0.9,0.2c2.7,0.4,4.8,2.5,5.2,5.2
		c4.7,27.5,14.2,42.7,26.9,42.7c12.7,0,22.3-15.1,26.9-42.7c0.5-2.7,2.5-4.8,5.2-5.2c27.5-4.6,42.7-14.2,42.7-26.9
		c0-9.9-9.1-17.8-26.1-23.1c17.8-5.4,36.3-8.1,55.2-8.1c105.1,0,190.5,85.5,190.5,190.5c0,19.1-2.8,37.8-8.3,55.8
		c-5-23.7-14-36.6-25.8-36.6c-12.7,0-22.3,15.2-26.9,42.7c-0.4,2.7-2.5,4.8-5.2,5.2c-27.5,4.7-42.7,14.2-42.7,26.9
		c0,12.7,15.2,22.3,42.7,26.9c2.7,0.5,4.8,2.5,5.2,5.2c0.7,4.1,1.5,7.8,2.4,11.3C377,412,330.3,430.8,280.7,430.8z M466.8,346.4
		c-9,1.5-16,8.5-17.5,17.5c-3.7,22.1-10.2,29.9-12.1,30.2c-1.4-0.2-5.4-4.6-8.9-16.1c-1.2-4.3-2.1-7.5-3.2-14.1
		c-1.5-9-8.5-16-17.5-17.5c-22-3.7-29.8-10.2-30.2-12.1c0.4-2,8.1-8.4,30.2-12.1c9-1.5,16-8.5,17.5-17.5
		c3.7-22.1,10.2-29.9,12.1-30.2c1.9,0.3,8.4,8.1,12.1,30.2c1.5,9,8.5,16,17.5,17.5c22.1,3.7,29.9,10.2,30.2,12.1
		C496.7,336.2,489,342.7,466.8,346.4z"/>
</g>
</svg>
