<?xml version="1.0" encoding="utf-8"?>
<!-- Generator: Adobe Illustrator 18.0.0, SVG Export Plug-In . SVG Version: 6.00 Build 0)  -->
<!DOCTYPE svg PUBLIC "-//W3C//DTD SVG 1.1//EN" "http://www.w3.org/Graphics/SVG/1.1/DTD/svg11.dtd">
<svg version="1.1" id="Outline" xmlns="http://www.w3.org/2000/svg" xmlns:xlink="http://www.w3.org/1999/xlink" x="0px" y="0px"
	 viewBox="0 0 512 512" enable-background="new 0 0 512 512" xml:space="preserve">
<circle fill="#0D56A2" cx="271.8" cy="312" r="8"/>
<circle fill="#0F15F3" cx="272" cy="376" r="8"/>
<path fill="#D64F34" d="M423.6,69.6c-0.8-2.6-2.8-4.6-5.4-5.3l-90-25.7l-9.1-18.2c-1.4-2.7-4.1-4.4-7.2-4.4v0H200v0
	c-3,0-5.8,1.7-7.2,4.4l-9.1,18.2l-90,25.7c-2.6,0.7-4.7,2.8-5.4,5.3C88,70.7,80.1,97,72.1,155.9C58.8,253.9,56,364.5,56,440
	c0,4.4,3.6,8,8,8h48.9l-0.8,7c-0.3,2.7,0.7,5.4,2.8,7.1c50,41.7,122.9,34.1,126,33.8c3.1-0.3,5.7-2.5,6.7-5.4l8.4-25.2l8.4,25.2
	c1,3,3.6,5.1,6.7,5.4c5.5,0.5,11.1,0.8,16.7,0.7c25.1,0,73.2-4.4,109.3-34.5c2.1-1.7,3.1-4.4,2.8-7.1l-0.8-7H448c4.4,0,8-3.6,8-8
	c0-75.5-2.8-186.1-16.1-284.1C431.9,97,424,70.7,423.6,69.6z M314.1,46.1l26.3,52.6l-22.3,5.6c-4.3,1.1-6.9,5.4-5.8,9.7
	c0.2,0.9,0.6,1.7,1.1,2.5l13,19.6l-65,97.5L314.1,46.1z M296.9,48h-81.9l-4.5-16h90.9L296.9,48z M292.4,64L256,193.6L219.6,64H292.4
	z M197.9,46.1l49.8,177l-1.2,4.2L185.6,136l13-19.6c2.5-3.7,1.5-8.6-2.2-11.1c-0.8-0.5-1.6-0.9-2.5-1.1l-22.3-5.6L197.9,46.1z
	 M72,432c0.4-175.5,15.3-279,24.5-326.4l39.4,150.9L114.8,432H72z M138.6,368H184v16h-47.3L138.6,368z M234.1,480.4
	c-16.2,0.8-68.1,0.9-105.6-27.9l1.4-11.6l4.9-41H192c4.4,0,8-3.6,8-8v-32c0-4.4-3.6-8-8-8h-51.5l11.4-95c0.1-1,0.1-2-0.2-3
	l-46-176.4L174,58l-21.2,42.4c-2,4-0.4,8.8,3.6,10.7c0.5,0.3,1.1,0.5,1.6,0.6l21,5.2l-9.7,14.6c-1.8,2.7-1.8,6.2,0,8.9l71.5,107.2
	l-8.5,30.2c-0.2,0.7-0.3,1.4-0.3,2.2l0,0v120c0,1,0.2,2,0.6,3l14.9,37.3L234.1,480.4z M277.9,480.4l-14.3-42.9
	c0-0.2-0.1-0.3-0.2-0.4l0,0L248,398.5v-116l49.6-74.4H352c4.4,0,8-3.6,8-8s-3.6-8-8-8h-43.7l34.4-51.6c1.8-2.7,1.8-6.2,0-8.9
	L333,117l21-5.2c4.3-1.1,6.9-5.4,5.8-9.7c-0.1-0.6-0.3-1.1-0.6-1.6L338,58l68.3,19.5l-46,176.4c-0.3,1-0.3,2-0.2,3l11.4,95H320
	c-4.4,0-8,3.6-8,8v32c0,4.4,3.6,8,8,8h57.2l4.9,41l1.4,11.6C346,481.3,294.1,481.2,277.9,480.4z M375.3,384H328v-16h45.4L375.3,384z
	 M397.2,432l-21.1-175.4l39.4-151c9.2,47.3,24,150.6,24.5,326.4H397.2z"/>
</svg>
